<svg width="20" height="20" viewBox="0 0 20 20" fill="none" xmlns="http://www.w3.org/2000/svg">
<path d="M14.2081 16.9C13.3915 17.6917 12.4998 17.5667 11.6415 17.1917C10.7331 16.8083 9.89981 16.7917 8.94148 17.1917C7.74148 17.7083 7.10814 17.5583 6.39148 16.9C2.32481 12.7083 2.92481 6.325 7.54148 6.09167C8.66648 6.15 9.44981 6.70833 10.1081 6.71667C10.7665 6.70833 11.6915 6.04167 12.9415 6.15833C14.0581 6.26667 14.9331 6.68333 15.3915 7.28333C12.9581 8.68333 13.3498 11.9333 15.7748 12.9C15.2748 14.1333 14.6331 15.3667 14.2081 16.0667L14.1998 16.0583C14.0915 16.225 13.9998 16.3917 13.9081 16.5667L14.2081 16.5583V16.9ZM10.0248 6.04167C9.91648 4.18333 11.4748 2.65 13.1915 2.5C13.4081 4.3 11.6581 5.95 10.0248 6.04167Z" fill="#1D1B20"/>
</svg>
